<?xml version="1.0" standalone="no"?>
<!DOCTYPE svg PUBLIC "-//W3C//DTD SVG 20010904//EN"
 "http://www.w3.org/TR/2001/REC-SVG-20010904/DTD/svg10.dtd">
<svg version="1.0" xmlns="http://www.w3.org/2000/svg"
 width="1000.000000pt" height="1000.000000pt" viewBox="0 0 1000.000000 1000.000000"
 preserveAspectRatio="xMidYMid meet">
<metadata>
Created by potrace 1.16, written by Peter Selinger 2001-2019
</metadata>
<g transform="translate(0.000000,1000.000000) scale(0.100000,-0.100000)"
fill="#000000" stroke="none">
<path d="M4955 8120 c-4 -6 -70 -10 -166 -10 -99 0 -159 -4 -159 -10 0 -6 -27
-10 -60 -10 -33 0 -60 -4 -60 -10 0 -6 -30 -10 -70 -10 -40 0 -70 -4 -70 -10
0 -5 -18 -10 -40 -10 -22 0 -40 -4 -40 -10 0 -5 -18 -10 -40 -10 -22 0 -40 -4
-40 -10 0 -5 -18 -10 -40 -10 -22 0 -40 -4 -40 -10 0 -5 -13 -10 -30 -10 -16
0 -30 -4 -30 -10 0 -5 -13 -10 -30 -10 -16 0 -30 -4 -30 -10 0 -5 -13 -10 -30
-10 -16 0 -30 -4 -30 -10 0 -5 -13 -10 -30 -10 -16 0 -30 -4 -30 -10 0 -5 -13
-10 -30 -10 -16 0 -30 -4 -30 -10 0 -5 -9 -10 -20 -10 -11 0 -20 -4 -20 -10 0
-5 -11 -10 -24 -10 -14 0 -28 -4 -31 -10 -3 -5 -15 -10 -26 -10 -10 0 -19 -4
-19 -10 0 -5 -9 -10 -20 -10 -11 0 -20 -4 -20 -10 0 -5 -9 -10 -20 -10 -11 0
-20 -4 -20 -10 0 -5 -9 -10 -20 -10 -11 0 -20 -4 -20 -10 0 -5 -9 -10 -20 -10
-11 0 -20 -4 -20 -10 0 -5 -9 -10 -20 -10 -11 0 -20 -4 -20 -10 0 -5 -8 -10
-18 -10 -10 0 -24 -9 -32 -20 -8 -11 -21 -20 -30 -20 -9 0 -22 -9 -30 -20 -8
-11 -22 -20 -32 -20 -10 0 -18 -4 -18 -10 0 -5 -8 -10 -18 -10 -10 0 -24 -9
-32 -20 -8 -11 -21 -20 -28 -20 -8 0 -27 -13 -42 -30 -15 -16 -33 -30 -40 -30
-7 0 -25 -13 -40 -30 -15 -16 -34 -30 -42 -30 -7 0 -20 -9 -28 -20 -8 -11 -20
-20 -27 -20 -16 0 -443 -425 -443 -441 0 -6 -13 -24 -30 -39 -16 -15 -30 -33
-30 -40 0 -7 -13 -25 -30 -40 -16 -15 -30 -33 -30 -40 0 -7 -13 -25 -30 -40
-16 -15 -30 -34 -30 -42 0 -7 -9 -20 -20 -28 -11 -8 -20 -22 -20 -32 0 -10 -4
-18 -10 -18 -5 0 -10 -8 -10 -18 0 -10 -9 -24 -20 -32 -11 -8 -20 -22 -20 -32
0 -10 -4 -18 -10 -18 -5 0 -10 -8 -10 -18 0 -10 -9 -24 -20 -32 -11 -8 -20
-22 -20 -32 0 -10 -4 -18 -10 -18 -5 0 -10 -9 -10 -20 0 -11 -4 -20 -10 -20
-5 0 -10 -9 -10 -20 0 -11 -4 -20 -10 -20 -5 0 -10 -9 -10 -20 0 -11 -4 -20
-10 -20 -5 0 -10 -13 -10 -30 0 -16 -4 -30 -10 -30 -5 0 -10 -9 -10 -20 0 -11
-4 -20 -10 -20 -5 0 -10 -9 -10 -20 0 -11 -4 -20 -10 -20 -5 0 -10 -9 -10 -20
0 -11 -4 -20 -10 -20 -5 0 -10 -13 -10 -30 0 -16 -4 -30 -10 -30 -5 0 -10 -13
-10 -30 0 -16 -4 -30 -10 -30 -5 0 -10 -13 -10 -30 0 -16 -4 -30 -10 -30 -5 0
-10 -13 -10 -30 0 -16 -4 -30 -10 -30 -5 0 -10 -13 -10 -30 0 -16 -4 -30 -10
-30 -5 0 -10 -18 -10 -40 0 -22 -4 -40 -10 -40 -5 0 -10 -18 -10 -40 0 -22 -4
-40 -10 -40 -5 0 -10 -18 -10 -40 0 -22 -4 -40 -10 -40 -6 0 -10 -27 -10 -60
0 -33 -4 -60 -10 -60 -6 0 -10 -30 -10 -70 0 -40 -4 -70 -10 -70 -6 0 -10 -53
-10 -140 0 -87 -4 -140 -10 -140 -6 0 -10 -37 -10 -90 0 -53 4 -90 10 -90 6 0
10 -57 10 -150 0 -93 4 -150 10 -150 6 0 10 -27 10 -60 0 -33 4 -60 10 -60 6
0 10 -27 10 -60 0 -33 4 -60 10 -60 6 0 10 -18 10 -40 0 -22 5 -40 10 -40 6 0
10 -18 10 -40 0 -22 5 -40 10 -40 6 0 10 -18 10 -40 0 -22 5 -40 10 -40 6 0
10 -18 10 -40 0 -22 5 -40 10 -40 6 0 10 -9 10 -20 0 -11 5 -20 10 -20 6 0 10
-13 10 -30 0 -16 5 -30 10 -30 6 0 10 -13 10 -30 0 -16 5 -30 10 -30 6 0 10
-13 10 -30 0 -16 5 -30 10 -30 6 0 10 -9 10 -20 0 -11 5 -20 10 -20 6 0 10
-13 10 -30 0 -16 5 -30 10 -30 6 0 10 -9 10 -20 0 -11 5 -20 10 -20 6 0 10 -9
10 -20 0 -11 5 -20 10 -20 6 0 10 -9 10 -20 0 -11 5 -20 10 -20 6 0 10 -9 10
-20 0 -11 5 -20 10 -20 6 0 10 -9 10 -20 0 -11 5 -20 10 -20 6 0 10 -9 10 -20
0 -11 5 -20 10 -20 6 0 10 -8 10 -18 0 -10 9 -24 20 -32 11 -8 20 -22 20 -32
0 -10 5 -18 10 -18 6 0 10 -8 10 -18 0 -10 9 -24 20 -32 11 -8 20 -22 20 -32
0 -10 5 -18 10 -18 6 0 10 -7 10 -16 0 -9 13 -29 30 -44 16 -15 30 -34 30 -42
0 -7 9 -20 20 -28 11 -8 20 -21 20 -28 0 -7 18 -31 40 -52 22 -21 40 -44 40
-50 0 -6 27 -38 60 -70 33 -32 60 -64 60 -70 0 -13 186 -200 200 -200 6 0 42
-31 80 -70 38 -38 74 -70 81 -70 6 0 24 -13 39 -30 15 -16 34 -30 42 -30 7 0
20 -9 28 -20 8 -11 21 -20 28 -20 8 0 27 -13 42 -30 15 -16 34 -30 42 -30 7 0
20 -9 28 -20 8 -11 22 -20 32 -20 10 0 18 -4 18 -10 0 -5 8 -10 18 -10 10 0
24 -9 32 -20 8 -11 22 -20 32 -20 10 0 18 -4 18 -10 0 -5 8 -10 18 -10 10 0
24 -9 32 -20 8 -11 22 -20 32 -20 10 0 18 -4 18 -10 0 -5 14 -10 30 -10 17 0
30 -4 30 -10 0 -5 9 -10 20 -10 11 0 20 -4 20 -10 0 -5 9 -10 20 -10 11 0 20
-4 20 -10 0 -5 9 -10 20 -10 11 0 20 -4 20 -10 0 -5 9 -10 20 -10 11 0 20 -4
20 -10 0 -5 14 -10 30 -10 17 0 30 -4 30 -10 0 -5 14 -10 30 -10 17 0 30 -4
30 -10 0 -5 9 -10 20 -10 11 0 20 -4 20 -10 0 -5 14 -10 30 -10 17 0 30 -4 30
-10 0 -5 14 -10 30 -10 17 0 30 -4 30 -10 0 -5 14 -10 30 -10 17 0 30 -4 30
-10 0 -5 18 -10 40 -10 22 0 40 -4 40 -10 0 -5 18 -10 40 -10 22 0 40 -4 40
-10 0 -5 14 -10 30 -10 17 0 30 -4 30 -10 0 -6 27 -10 60 -10 33 0 60 -4 60
-10 0 -6 27 -10 60 -10 33 0 60 -4 60 -10 0 -6 47 -10 120 -10 73 0 120 -4
120 -10 0 -6 70 -10 190 -10 120 0 190 4 190 10 0 6 47 10 120 10 73 0 120 4
120 10 0 6 30 10 70 10 40 0 70 4 70 10 0 6 23 10 50 10 28 0 50 5 50 10 0 6
18 10 40 10 22 0 40 5 40 10 0 6 18 10 40 10 22 0 40 5 40 10 0 6 14 10 30 10
17 0 30 5 30 10 0 6 18 10 40 10 22 0 40 5 40 10 0 6 9 10 20 10 11 0 20 5 20
10 0 6 14 10 30 10 17 0 30 5 30 10 0 6 14 10 30 10 17 0 30 5 30 10 0 6 14
10 30 10 17 0 30 5 30 10 0 6 9 10 20 10 11 0 20 5 20 10 0 6 9 10 20 10 11 0
20 5 20 10 0 6 11 10 24 10 14 0 28 5 31 10 3 6 15 10 26 10 10 0 19 5 19 10
0 6 9 10 20 10 11 0 20 5 20 10 0 6 9 10 20 10 11 0 20 5 20 10 0 6 9 10 20
10 11 0 20 5 20 10 0 6 8 10 18 10 10 0 24 9 32 20 8 11 22 20 32 20 10 0 18
5 18 10 0 6 8 10 18 10 10 0 24 9 32 20 8 11 22 20 32 20 10 0 18 5 18 10 0 6
8 10 18 10 10 0 24 9 32 20 8 11 21 20 28 20 8 0 27 14 42 30 15 17 33 30 40
30 7 0 25 14 40 30 15 17 33 30 40 30 6 0 29 18 50 40 21 22 43 40 49 40 14 0
361 347 361 361 0 6 18 28 40 49 22 21 40 44 40 50 0 7 14 25 30 40 17 15 30
33 30 40 0 7 14 25 30 40 17 15 30 34 30 42 0 7 9 20 20 28 11 8 20 22 20 32
0 10 5 18 10 18 6 0 10 8 10 18 0 10 9 24 20 32 11 8 20 22 20 32 0 10 5 18
10 18 6 0 10 8 10 18 0 10 9 24 20 32 11 8 20 22 20 32 0 10 5 18 10 18 6 0
10 9 10 20 0 11 5 20 10 20 6 0 10 9 10 20 0 11 5 20 10 20 6 0 10 9 10 20 0
11 5 20 10 20 6 0 10 9 10 20 0 11 5 20 10 20 6 0 10 9 10 20 0 11 5 20 10 20
6 0 10 14 10 30 0 17 5 30 10 30 6 0 10 9 10 20 0 11 5 20 10 20 6 0 10 14 10
30 0 17 5 30 10 30 6 0 10 9 10 20 0 11 5 20 10 20 6 0 10 14 10 30 0 17 5 30
10 30 6 0 10 14 10 30 0 17 5 30 10 30 6 0 10 14 10 30 0 17 5 30 10 30 6 0
10 18 10 40 0 22 5 40 10 40 6 0 10 18 10 40 0 22 5 40 10 40 6 0 10 18 10 40
0 22 5 40 10 40 6 0 10 23 10 50 0 28 5 50 10 50 6 0 10 27 10 60 0 33 4 60
10 60 6 0 10 37 10 90 0 53 4 90 10 90 6 0 10 93 10 260 0 167 -4 260 -10 260
-6 0 -10 37 -10 90 0 53 -4 90 -10 90 -6 0 -10 30 -10 70 0 40 -4 70 -10 70
-5 0 -10 23 -10 50 0 28 -4 50 -10 50 -5 0 -10 18 -10 40 0 22 -4 40 -10 40
-5 0 -10 18 -10 40 0 22 -4 40 -10 40 -5 0 -10 18 -10 40 0 22 -4 40 -10 40
-5 0 -10 14 -10 30 0 17 -4 30 -10 30 -5 0 -10 9 -10 20 0 11 -4 20 -10 20 -5
0 -10 14 -10 30 0 17 -4 30 -10 30 -5 0 -10 14 -10 30 0 17 -4 30 -10 30 -5 0
-10 14 -10 30 0 17 -4 30 -10 30 -5 0 -10 9 -10 20 0 11 -4 20 -10 20 -5 0
-10 9 -10 20 0 11 -4 20 -10 20 -5 0 -10 9 -10 20 0 11 -4 20 -10 20 -5 0 -10
9 -10 20 0 11 -4 20 -10 20 -5 0 -10 14 -10 30 0 17 -4 30 -10 30 -5 0 -10 9
-10 20 0 11 -4 20 -10 20 -5 0 -10 8 -10 18 0 10 -9 24 -20 32 -11 8 -20 22
-20 32 0 10 -4 18 -10 18 -5 0 -10 8 -10 18 0 10 -9 24 -20 32 -11 8 -20 22
-20 32 0 10 -4 18 -10 18 -5 0 -10 8 -10 18 0 10 -9 24 -20 32 -11 8 -20 21
-20 30 0 9 -9 22 -20 30 -11 8 -20 21 -20 28 0 8 -13 27 -30 42 -16 15 -30 33
-30 40 0 7 -14 25 -30 40 -17 15 -30 33 -30 39 0 7 -31 43 -70 81 -38 38 -70
74 -70 80 0 13 -186 200 -200 200 -5 0 -42 32 -81 70 -39 39 -75 70 -80 70 -5
0 -23 14 -41 30 -17 17 -36 30 -42 30 -6 0 -18 9 -26 20 -8 11 -21 20 -28 20
-8 0 -27 14 -42 30 -15 17 -35 30 -44 30 -9 0 -16 5 -16 10 0 6 -8 10 -18 10
-10 0 -24 9 -32 20 -8 11 -21 20 -30 20 -9 0 -22 9 -30 20 -8 11 -22 20 -32
20 -10 0 -18 5 -18 10 0 6 -9 10 -20 10 -11 0 -20 5 -20 10 0 6 -9 10 -20 10
-11 0 -20 5 -20 10 0 6 -9 10 -20 10 -11 0 -20 5 -20 10 0 6 -9 10 -20 10 -11
0 -20 5 -20 10 0 6 -9 10 -20 10 -11 0 -20 5 -20 10 0 6 -9 10 -20 10 -11 0
-20 5 -20 10 0 6 -9 10 -20 10 -11 0 -20 5 -20 10 0 6 -9 10 -20 10 -11 0 -20
5 -20 10 0 6 -13 10 -30 10 -16 0 -30 5 -30 10 0 6 -13 10 -30 10 -16 0 -30 5
-30 10 0 6 -12 9 -27 9 -21 -1 -23 -3 -9 -6 11 -3 26 -11 33 -19 8 -7 20 -11
28 -8 8 3 21 -1 30 -9 8 -8 24 -13 35 -10 14 4 20 0 20 -10 0 -10 6 -13 20
-10 14 4 20 0 20 -10 0 -10 6 -13 20 -10 14 4 20 0 20 -10 0 -10 6 -13 20 -10
14 4 20 0 20 -10 0 -10 6 -13 20 -10 11 3 20 0 20 -6 0 -6 9 -11 20 -11 11 0
20 -4 20 -10 0 -5 9 -10 20 -10 11 0 20 -4 20 -10 0 -5 9 -10 20 -10 11 0 20
-4 20 -10 0 -5 9 -10 20 -10 11 0 20 -6 20 -14 0 -9 7 -12 18 -9 12 3 22 -4
31 -21 8 -15 19 -22 28 -19 8 3 21 -4 29 -16 8 -11 24 -21 35 -21 10 0 19 -7
19 -15 0 -9 6 -12 15 -9 9 4 25 -6 41 -25 14 -17 34 -31 43 -31 10 0 23 -11
31 -24 7 -15 18 -22 27 -19 8 3 25 -7 40 -26 14 -17 32 -31 39 -31 6 0 43 -31
80 -70 37 -38 73 -70 79 -70 16 0 205 -189 205 -205 0 -6 32 -42 71 -80 41
-40 68 -73 65 -81 -3 -8 -2 -14 2 -14 18 0 64 -51 59 -65 -4 -8 -3 -15 1 -15
18 0 64 -51 59 -65 -4 -8 -2 -15 4 -15 18 0 41 -30 35 -45 -3 -8 -1 -15 5 -15
18 0 41 -30 35 -45 -3 -9 1 -15 10 -15 11 0 15 -6 11 -20 -3 -11 -1 -20 5 -20
17 0 40 -30 34 -45 -3 -9 1 -15 10 -15 11 0 15 -6 11 -20 -3 -11 -1 -20 5 -20
17 0 40 -30 34 -45 -3 -9 1 -15 10 -15 11 0 15 -6 11 -20 -3 -13 0 -20 9 -20
9 0 14 -11 14 -30 0 -16 5 -30 11 -30 6 0 9 -9 6 -20 -3 -14 0 -20 10 -20 10
0 14 -6 10 -20 -3 -14 0 -20 10 -20 10 0 14 -6 10 -20 -3 -14 0 -20 10 -20 10
0 14 -6 10 -20 -3 -13 0 -20 9 -20 9 0 14 -11 14 -30 0 -16 5 -30 10 -30 6 0
10 -13 10 -30 0 -16 5 -30 10 -30 6 0 10 -13 10 -30 0 -16 5 -30 11 -30 6 0 9
-9 6 -20 -3 -13 0 -20 9 -20 9 0 14 -11 14 -30 0 -16 5 -30 10 -30 6 0 10 -18
10 -40 0 -22 5 -40 10 -40 6 0 10 -18 10 -40 0 -22 5 -40 10 -40 6 0 10 -18
10 -40 0 -22 5 -40 10 -40 6 0 10 -22 10 -50 0 -27 5 -50 10 -50 6 0 10 -30
10 -70 0 -40 4 -70 10 -70 6 0 10 -37 10 -90 0 -53 4 -90 10 -90 6 0 10 -90
10 -250 0 -160 -4 -250 -10 -250 -6 0 -10 -37 -10 -90 0 -53 -4 -90 -10 -90
-6 0 -10 -27 -10 -60 0 -33 -4 -60 -10 -60 -5 0 -10 -22 -10 -50 0 -27 -4 -50
-10 -50 -5 0 -10 -18 -10 -40 0 -22 -4 -40 -10 -40 -5 0 -10 -18 -10 -40 0
-22 -4 -40 -10 -40 -5 0 -10 -18 -10 -40 0 -22 -4 -40 -10 -40 -5 0 -10 -13
-10 -30 0 -16 -4 -30 -10 -30 -5 0 -10 -13 -10 -30 0 -16 -4 -30 -10 -30 -5 0
-10 -13 -10 -30 0 -16 -4 -30 -10 -30 -5 0 -10 -9 -10 -20 0 -11 -4 -20 -10
-20 -5 0 -10 -13 -10 -30 0 -19 -5 -30 -14 -30 -9 0 -12 -7 -9 -20 3 -11 0
-20 -6 -20 -6 0 -11 -13 -11 -30 0 -19 -5 -30 -14 -30 -9 0 -12 -7 -9 -20 4
-14 0 -20 -10 -20 -10 0 -13 -6 -10 -20 4 -14 0 -20 -10 -20 -10 0 -13 -6 -10
-20 4 -14 0 -20 -10 -20 -10 0 -13 -6 -10 -20 3 -11 0 -20 -6 -20 -6 0 -11 -9
-11 -20 0 -11 -7 -20 -15 -20 -9 0 -12 -6 -9 -15 4 -9 -3 -23 -15 -34 -11 -10
-21 -26 -21 -35 0 -9 -7 -16 -15 -16 -9 0 -12 -6 -9 -15 4 -9 -3 -23 -15 -34
-11 -10 -21 -26 -21 -35 0 -9 -7 -16 -15 -16 -9 0 -12 -6 -9 -15 6 -15 -17
-45 -35 -45 -6 0 -8 -7 -5 -15 4 -9 -6 -27 -25 -44 -17 -16 -31 -34 -31 -41 0
-7 -13 -25 -30 -40 -16 -15 -30 -33 -30 -39 0 -6 -18 -27 -40 -47 -22 -20 -40
-42 -40 -48 0 -16 -350 -366 -366 -366 -6 0 -27 -18 -47 -40 -19 -22 -41 -40
-50 -40 -8 0 -25 -13 -38 -30 -13 -16 -30 -30 -37 -30 -8 0 -27 -14 -43 -31
-17 -19 -35 -29 -44 -25 -8 3 -15 1 -15 -5 0 -16 -26 -39 -44 -39 -9 0 -16 -4
-16 -10 0 -5 -8 -10 -18 -10 -10 0 -24 -9 -32 -20 -8 -11 -22 -20 -32 -20 -10
0 -18 -4 -18 -10 0 -5 -8 -10 -18 -10 -10 0 -24 -9 -32 -20 -8 -11 -22 -20
-32 -20 -10 0 -18 -4 -18 -10 0 -5 -9 -10 -20 -10 -11 0 -20 -4 -20 -10 0 -5
-9 -10 -20 -10 -11 0 -20 -4 -20 -10 0 -5 -9 -10 -20 -10 -11 0 -20 -4 -20
-10 0 -5 -9 -10 -20 -10 -11 0 -20 -4 -20 -10 0 -5 -13 -10 -30 -10 -16 0 -30
-4 -30 -10 0 -5 -9 -10 -20 -10 -11 0 -20 -4 -20 -10 0 -5 -9 -10 -20 -10 -11
0 -20 -4 -20 -10 0 -5 -13 -10 -30 -10 -16 0 -30 -4 -30 -10 0 -5 -13 -10 -30
-10 -16 0 -30 -4 -30 -10 0 -5 -13 -10 -30 -10 -16 0 -30 -4 -30 -10 0 -5 -9
-10 -20 -10 -11 0 -20 -4 -20 -10 0 -5 -18 -10 -40 -10 -22 0 -40 -4 -40 -10
0 -5 -13 -10 -30 -10 -16 0 -30 -4 -30 -10 0 -5 -18 -10 -40 -10 -22 0 -40 -4
-40 -10 0 -5 -18 -10 -40 -10 -22 0 -40 -4 -40 -10 0 -5 -22 -10 -50 -10 -27
0 -50 -4 -50 -10 0 -6 -30 -10 -70 -10 -40 0 -70 -4 -70 -10 0 -6 -47 -10
-120 -10 -73 0 -120 -4 -120 -10 0 -6 -67 -10 -180 -10 -113 0 -180 4 -180 10
0 6 -47 10 -120 10 -73 0 -120 4 -120 10 0 6 -27 10 -60 10 -33 0 -60 4 -60
10 0 6 -27 10 -60 10 -33 0 -60 4 -60 10 0 6 -13 10 -30 10 -16 0 -30 5 -30
10 0 6 -18 10 -40 10 -22 0 -40 5 -40 10 0 6 -18 10 -40 10 -22 0 -40 5 -40
10 0 6 -13 10 -30 10 -16 0 -30 5 -30 10 0 6 -13 10 -30 10 -16 0 -30 5 -30
10 0 6 -13 10 -30 10 -16 0 -30 5 -30 10 0 6 -9 10 -20 10 -11 0 -20 5 -20 10
0 6 -13 10 -30 10 -16 0 -30 5 -30 10 0 6 -13 10 -30 10 -16 0 -30 5 -30 10 0
6 -9 10 -20 10 -11 0 -20 5 -20 10 0 6 -9 10 -20 10 -11 0 -20 5 -20 10 0 6
-9 10 -20 10 -11 0 -20 5 -20 10 0 6 -9 10 -20 10 -11 0 -20 5 -20 10 0 6 -13
10 -30 10 -20 0 -30 5 -30 15 0 9 -6 12 -15 9 -9 -4 -23 3 -34 15 -10 11 -26
21 -35 21 -9 0 -16 7 -16 15 0 9 -6 12 -15 9 -9 -4 -23 3 -34 15 -10 11 -26
21 -35 21 -9 0 -16 7 -16 15 0 9 -6 12 -15 9 -15 -6 -45 17 -45 35 0 6 -7 8
-15 4 -14 -5 -65 41 -65 59 0 4 -7 5 -15 2 -15 -6 -45 17 -45 35 0 6 -7 8 -15
4 -14 -5 -65 41 -65 59 0 4 -6 5 -14 2 -8 -3 -41 24 -81 65 -38 39 -74 71 -81
71 -16 0 -204 189 -204 205 0 7 -27 38 -60 69 -33 32 -60 63 -60 71 0 7 -19
29 -41 49 -26 23 -39 41 -35 51 3 8 1 15 -5 15 -14 0 -39 26 -39 40 0 7 -14
25 -31 41 -19 17 -29 35 -25 44 3 9 0 15 -9 15 -8 0 -15 7 -15 16 0 9 -10 25
-21 35 -12 11 -19 25 -15 34 3 9 0 15 -9 15 -8 0 -15 7 -15 16 0 9 -10 25 -21
35 -12 11 -19 25 -15 34 3 9 0 15 -9 15 -8 0 -15 9 -15 20 0 11 -5 20 -11 20
-6 0 -9 9 -6 20 3 13 0 20 -9 20 -8 0 -14 9 -14 20 0 11 -5 20 -11 20 -6 0 -9
9 -6 20 3 14 0 20 -10 20 -10 0 -14 6 -10 20 3 14 0 20 -10 20 -10 0 -14 6
-10 20 3 13 0 20 -9 20 -9 0 -14 11 -14 30 0 17 -5 30 -11 30 -6 0 -9 9 -6 20
3 13 0 20 -9 20 -9 0 -14 11 -14 30 0 17 -4 30 -10 30 -5 0 -10 14 -10 30 0
17 -4 30 -10 30 -5 0 -10 14 -10 30 0 17 -5 30 -11 30 -6 0 -9 9 -6 20 3 13 0
20 -9 20 -10 0 -14 12 -14 40 0 22 -4 40 -10 40 -5 0 -10 18 -10 40 0 22 -4
40 -10 40 -5 0 -10 18 -10 40 0 22 -4 40 -10 40 -5 0 -10 18 -10 40 0 22 -4
40 -10 40 -6 0 -10 27 -10 60 0 33 -4 60 -10 60 -6 0 -10 27 -10 60 0 33 -4
60 -10 60 -6 0 -10 57 -10 150 0 93 -4 150 -10 150 -6 0 -10 33 -10 80 0 47 4
80 10 80 6 0 10 53 10 140 0 87 4 140 10 140 6 0 10 30 10 70 0 40 4 70 10 70
6 0 10 27 10 60 0 33 4 60 10 60 6 0 10 18 10 40 0 22 5 40 10 40 6 0 10 18
10 40 0 22 5 40 10 40 6 0 10 16 10 36 0 19 7 42 15 50 8 8 12 21 9 29 -3 8 1
21 10 30 8 9 13 22 10 30 -3 8 1 21 10 30 8 9 13 22 10 30 -3 8 1 21 10 30 8
9 13 22 10 30 -3 8 1 21 9 30 8 8 13 24 10 35 -4 14 0 20 10 20 10 0 13 6 10
20 -4 14 0 20 10 20 10 0 13 6 10 20 -4 14 0 20 10 20 10 0 13 6 10 20 -3 11
0 20 6 20 6 0 11 14 11 30 0 19 5 30 14 30 9 0 12 7 9 20 -4 14 0 20 10 20 10
0 13 6 10 20 -4 14 0 20 10 20 10 0 13 6 10 20 -4 14 0 20 11 20 9 0 13 6 10
15 -6 15 17 45 34 45 6 0 8 9 5 20 -4 14 0 20 11 20 9 0 13 6 10 15 -6 15 17
45 34 45 6 0 8 9 5 20 -4 14 0 20 11 20 9 0 13 6 10 15 -6 15 17 45 35 45 6 0
8 7 4 15 -5 14 41 65 59 65 4 0 5 7 1 15 -5 14 41 65 59 65 4 0 5 7 1 15 -5
14 41 65 59 65 4 0 5 6 2 13 -6 16 426 449 442 443 6 -2 17 7 25 20 8 15 20
24 29 21 9 -2 26 10 40 30 14 18 32 32 40 30 9 -2 27 11 40 30 15 20 32 32 41
29 10 -2 22 6 30 21 9 16 19 23 31 20 12 -3 18 0 18 10 0 10 6 14 19 10 13 -3
23 3 32 20 9 16 19 23 31 20 10 -3 18 -1 18 5 0 17 30 40 45 34 9 -3 15 1 15
10 0 11 6 15 20 11 14 -3 20 0 20 10 0 10 6 14 20 10 14 -3 20 0 20 10 0 10 6
14 20 10 14 -3 20 0 20 10 0 10 6 14 20 10 14 -3 20 0 20 10 0 10 6 14 20 10
14 -3 20 0 20 10 0 10 6 14 20 10 13 -3 20 0 20 9 0 9 11 14 30 14 17 0 30 5
30 11 0 6 9 9 20 6 13 -3 20 0 20 9 0 9 11 14 30 14 17 0 30 5 30 10 0 6 14
10 30 10 17 0 30 5 30 10 0 6 14 10 30 10 17 0 30 5 30 10 0 6 14 10 30 10 17
0 30 5 30 10 0 6 14 10 30 10 17 0 30 5 30 10 0 6 18 10 40 10 22 0 40 5 40
10 0 6 18 10 40 10 22 0 40 5 40 10 0 6 18 10 40 10 22 0 40 5 40 10 0 6 30
10 70 10 40 0 70 4 70 10 0 6 27 10 60 10 33 0 60 4 60 10 0 6 60 10 160 10
100 0 160 4 160 10 0 6 18 10 40 10 22 0 40 -4 40 -10 0 -6 60 -10 160 -10
100 0 160 -4 160 -10 0 -6 30 -10 70 -10 40 0 70 -4 70 -10 0 -6 27 -10 60
-10 33 0 60 -4 60 -10 0 -5 18 -10 40 -10 22 0 40 -4 40 -10 0 -5 18 -10 40
-10 22 0 40 -4 40 -10 0 -5 18 -10 40 -10 22 0 40 -4 40 -10 0 -5 18 -10 40
-10 22 0 40 -4 40 -10 0 -5 14 -10 30 -10 17 0 30 -4 30 -10 0 -5 15 -9 33 -9
30 2 30 2 5 6 -16 2 -28 9 -28 14 0 5 -13 9 -30 9 -16 0 -30 5 -30 10 0 6 -18
10 -40 10 -22 0 -40 5 -40 10 0 6 -18 10 -40 10 -22 0 -40 5 -40 10 0 6 -18
10 -40 10 -22 0 -40 5 -40 10 0 6 -18 10 -40 10 -22 0 -40 5 -40 10 0 6 -27
10 -60 10 -33 0 -60 4 -60 10 0 6 -30 10 -70 10 -40 0 -70 4 -70 10 0 6 -60
10 -160 10 -100 0 -160 4 -160 10 0 6 -20 10 -44 10 -25 0 -48 -4 -51 -10z"/>
<path d="M5475 6550 c-3 -5 -16 -10 -29 -10 -25 0 -76 -21 -76 -32 0 -5 -9 -8
-20 -8 -11 0 -20 -4 -20 -10 0 -5 -8 -10 -17 -10 -35 -1 -159 -139 -149 -166
7 -19 36 -18 36 2 0 8 5 12 11 9 14 -9 45 20 71 67 32 55 67 59 68 6 0 -21
-47 -78 -65 -78 -20 0 -105 -83 -105 -103 0 -9 -4 -17 -10 -17 -23 0 -4 -81
23 -101 5 -3 9 -48 10 -99 l1 -93 28 34 c15 18 28 39 28 46 0 7 9 33 20 56 11
24 22 52 25 63 5 22 24 72 48 126 10 21 17 43 17 49 0 14 52 113 63 117 4 2 7
10 7 19 0 8 27 42 60 75 33 34 60 63 60 64 0 9 -79 3 -85 -6z"/>
<path d="M4220 6391 c0 -17 -4 -33 -10 -36 -5 -3 -10 -17 -10 -31 0 -13 -4
-24 -10 -24 -5 0 -14 -19 -21 -42 -6 -24 -15 -51 -20 -60 -5 -10 -9 -31 -9
-48 0 -16 -4 -30 -10 -30 -5 0 -10 -22 -10 -50 0 -27 -4 -50 -10 -50 -6 0 -10
-93 -10 -260 0 -167 4 -260 10 -260 6 0 10 -18 10 -40 0 -22 5 -40 10 -40 6 0
10 31 10 74 0 41 -4 78 -10 81 -6 3 -10 50 -10 106 0 59 4 99 10 99 6 0 10 16
10 36 0 40 21 67 44 58 14 -5 16 13 16 159 0 100 4 168 10 172 6 3 10 35 10
70 0 35 5 67 10 70 6 3 10 22 10 41 0 19 -4 34 -10 34 -5 0 -10 -13 -10 -29z"/>
<path d="M4945 6288 c-11 -7 -26 -18 -33 -25 -7 -7 -21 -18 -30 -25 -31 -24
-42 -57 -42 -131 0 -79 16 -130 39 -122 24 9 41 -16 41 -59 0 -48 13 -66 48
-66 32 0 61 39 86 114 10 29 23 8 30 -50 6 -48 5 -52 -24 -74 -17 -13 -29 -31
-28 -39 1 -9 -9 -32 -24 -51 -14 -19 -29 -51 -33 -70 -4 -19 -13 -45 -21 -57
-15 -24 -19 -73 -6 -73 10 0 119 114 160 167 18 23 32 49 32 57 0 9 5 16 10
16 6 0 10 14 10 30 0 17 5 30 10 30 13 0 14 177 1 184 -5 3 -11 20 -14 38 -11
67 -21 93 -39 109 -10 9 -18 23 -19 30 0 8 -18 29 -41 47 -42 33 -78 40 -113
20z"/>
<path d="M5342 6066 c-12 -24 -24 -56 -28 -71 -4 -15 -13 -29 -21 -32 -8 -3
-12 -12 -9 -20 3 -7 -1 -16 -9 -19 -8 -4 -15 -19 -15 -34 0 -16 -5 -30 -12
-32 -14 -5 -12 -158 2 -172 6 -6 10 -72 10 -148 0 -85 4 -138 10 -138 6 0 10
34 10 83 0 45 5 98 11 117 6 19 10 57 10 85 -1 43 15 120 39 180 26 68 47 230
30 240 -4 3 -17 -15 -28 -39z"/>
<path d="M4800 5972 c0 -4 -46 -48 -102 -97 -57 -50 -157 -143 -223 -209 -66
-65 -134 -129 -152 -143 -18 -14 -55 -47 -83 -74 -28 -27 -53 -49 -57 -49 -3
0 -26 -22 -51 -50 -30 -33 -53 -50 -69 -50 -12 0 -23 -6 -23 -13 0 -7 -9 -23
-20 -35 -11 -12 -20 -26 -20 -31 0 -6 -9 -15 -20 -21 -18 -10 -29 -40 -14 -40
9 0 67 42 85 62 9 10 24 18 33 18 9 0 16 6 15 13 -3 25 2 35 44 78 63 64 174
169 179 169 14 0 238 217 238 231 0 5 5 9 11 9 10 0 33 20 102 86 18 16 40 33
50 37 9 3 17 13 17 22 0 8 6 15 13 15 13 0 77 60 77 73 0 4 -7 7 -15 7 -8 0
-15 -3 -15 -8z"/>
<path d="M4933 5757 c-12 -12 -47 -44 -77 -72 -31 -27 -56 -54 -56 -60 0 -5
-12 -23 -26 -40 -32 -38 -59 -94 -49 -103 4 -4 10 -1 12 6 3 6 13 12 24 12 26
0 26 -51 -1 -75 -11 -10 -20 -22 -20 -27 0 -25 -140 -138 -173 -138 -7 0 -23
-9 -37 -20 -14 -11 -31 -20 -37 -20 -7 0 -13 -4 -13 -10 0 -13 55 -13 78 -1 9
5 32 16 50 23 17 7 32 16 32 20 0 5 7 8 16 8 9 0 41 23 72 50 31 28 60 50 64
50 4 0 8 6 8 13 1 6 14 28 30 47 17 19 30 45 30 57 0 13 6 23 14 23 14 0 30
50 45 141 4 25 17 64 29 87 12 24 22 45 22 47 0 11 -16 3 -37 -18z"/>
<path d="M5147 5695 c-10 -14 -24 -25 -32 -25 -8 0 -15 -4 -15 -9 0 -5 -16
-26 -35 -47 -19 -21 -35 -41 -35 -45 0 -4 -15 -14 -32 -23 -35 -17 -78 -50
-78 -60 0 -10 89 -6 95 4 3 6 42 10 86 10 61 0 79 -3 79 -14 0 -8 6 -16 12
-18 9 -3 12 -37 10 -126 -2 -81 1 -122 7 -122 6 0 11 21 11 49 0 28 5 53 10
56 14 9 13 230 -1 274 -16 48 -51 121 -58 121 -3 0 -14 -12 -24 -25z"/>
<path d="M5033 5446 c-9 -11 -9 -23 0 -54 7 -22 16 -44 20 -48 4 -4 7 -38 7
-76 0 -39 4 -68 10 -68 6 0 10 9 10 20 0 11 5 20 10 20 6 0 10 -9 10 -20 0
-11 -4 -20 -10 -20 -5 0 -10 -5 -10 -11 0 -7 -19 -35 -43 -63 -24 -28 -56 -76
-71 -106 -16 -30 -32 -63 -37 -72 -12 -24 -11 -88 1 -88 6 0 10 9 10 20 0 11
5 20 10 20 6 0 10 8 10 18 0 10 16 33 35 52 19 19 35 38 35 42 0 5 25 33 55
63 30 29 55 60 55 69 0 9 5 16 10 16 6 0 10 9 10 20 0 11 5 20 10 20 6 0 10
40 10 100 0 55 -3 100 -8 100 -4 0 -13 14 -20 30 -12 27 -18 30 -60 30 -26 -1
-52 -7 -59 -14z"/>
<path d="M4509 5376 c-25 -6 -52 -16 -60 -22 -8 -7 -36 -24 -64 -38 -27 -15
-68 -38 -90 -51 -22 -14 -50 -25 -63 -25 -26 0 -41 28 -21 41 10 6 11 11 3 19
-8 8 -14 7 -24 -5 -7 -8 -19 -15 -27 -15 -18 0 -43 -24 -43 -41 0 -17 31 -38
58 -39 12 0 22 -4 22 -10 0 -6 26 -10 59 -10 33 0 63 5 66 10 3 6 23 10 43 10
21 0 48 9 62 20 14 11 31 20 38 20 6 0 12 5 12 10 0 6 7 10 15 10 16 0 34 13
102 74 24 21 43 42 43 47 0 12 -74 9 -131 -5z"/>
<path d="M5611 5380 c-44 -11 -83 -31 -99 -52 -7 -10 -19 -18 -26 -18 -13 0
-63 -52 -116 -121 -29 -37 -60 -97 -60 -115 0 -6 -7 -17 -15 -24 -8 -7 -15
-25 -15 -41 0 -16 -4 -29 -10 -29 -6 0 -10 -52 -10 -137 l0 -138 69 -33 c69
-33 161 -65 168 -58 2 2 -10 29 -27 61 -23 45 -30 70 -30 116 0 56 1 59 28 65
15 4 31 12 35 18 6 8 10 7 14 -1 2 -7 10 -13 16 -13 7 0 21 -14 32 -30 11 -16
23 -30 28 -30 4 0 7 -34 7 -75 0 -75 7 -88 30 -60 18 22 18 164 0 175 -8 5
-12 12 -8 15 3 4 15 1 26 -6 47 -29 51 -261 6 -311 -9 -9 -13 -22 -9 -27 3 -6
-1 -11 -10 -11 -11 0 -15 -5 -12 -14 3 -7 0 -19 -6 -25 -17 -17 -3 -22 26 -8
15 6 27 20 27 30 0 9 6 17 13 17 6 0 22 16 35 36 12 19 27 32 32 29 13 -8 13
-72 0 -80 -5 -3 -10 -28 -10 -54 0 -26 -4 -51 -9 -56 -5 -6 -21 -39 -37 -75
-16 -36 -43 -86 -61 -111 -18 -26 -33 -50 -33 -54 0 -14 -218 -223 -239 -230
-12 -3 -21 -11 -21 -16 0 -5 -7 -9 -15 -9 -8 0 -15 -4 -15 -10 0 -5 -7 -10
-15 -10 -8 0 -20 -9 -27 -20 -7 -11 -21 -20 -30 -20 -10 0 -18 -4 -18 -10 0
-5 -8 -10 -18 -10 -10 0 -24 -9 -32 -20 -8 -11 -22 -20 -32 -20 -10 0 -18 -4
-18 -10 0 -5 -9 -10 -20 -10 -11 0 -20 -4 -20 -10 0 -5 11 -10 24 -10 14 0 28
5 31 10 3 6 19 10 36 10 16 0 29 5 29 10 0 6 14 10 30 10 17 0 30 5 30 10 0 6
9 10 20 10 11 0 20 5 20 10 0 6 7 10 15 10 18 0 51 18 79 43 11 9 27 17 35 17
9 0 46 25 84 55 37 30 69 55 72 55 12 0 85 74 85 85 0 6 13 23 29 37 16 15 37
40 47 57 10 17 22 31 26 31 4 0 8 7 8 15 0 14 28 85 51 127 5 10 9 27 9 37 0
11 5 23 10 26 6 3 10 31 10 61 0 30 5 54 10 54 6 0 10 47 10 120 0 66 3 120 8
120 25 0 46 -290 22 -305 -12 -7 -13 -35 -2 -35 16 0 52 83 52 120 0 22 5 42
10 45 6 4 10 63 10 145 0 82 -4 141 -10 145 -5 3 -10 23 -10 43 0 22 -12 61
-30 95 -16 32 -30 63 -30 68 0 6 -30 39 -66 75 -37 35 -62 64 -58 65 5 1 19 0
32 -1 44 -3 28 15 -55 61 -37 21 -157 27 -168 9 -3 -5 -15 -10 -26 -10 -36 0
-17 31 49 82 64 49 64 52 3 38z"/>
<path d="M5298 5303 c-10 -11 -18 -25 -18 -31 0 -7 -5 -12 -11 -12 -6 0 -9 -9
-6 -19 3 -13 -9 -34 -39 -67 -24 -26 -44 -51 -44 -55 0 -10 -23 -39 -57 -76
-13 -13 -23 -28 -23 -32 0 -4 -9 -16 -21 -27 -12 -10 -28 -32 -36 -49 -9 -16
-19 -32 -22 -35 -10 -8 -31 -43 -44 -72 -6 -16 -15 -28 -18 -28 -4 0 -10 -13
-14 -30 -4 -16 -11 -32 -16 -35 -5 -4 -9 -46 -9 -94 0 -67 4 -92 15 -101 8 -7
15 -19 15 -26 0 -8 4 -14 9 -14 5 0 13 -9 16 -20 3 -11 15 -20 26 -20 10 0 19
-3 19 -7 0 -14 54 -33 93 -33 41 0 54 9 76 53 12 22 21 27 53 27 43 0 50 -19
20 -57 -19 -24 -85 -63 -106 -63 -8 0 -17 -7 -20 -16 -4 -9 -9 -14 -13 -10
-10 10 -153 -135 -153 -155 0 -9 -6 -29 -14 -43 -11 -23 -11 -33 3 -71 9 -25
19 -45 24 -45 4 0 25 -11 47 -25 45 -28 91 -32 110 -10 16 19 30 19 30 1 0 -7
-21 -31 -47 -52 -27 -21 -49 -42 -51 -46 -2 -5 -11 -8 -21 -8 -9 0 -27 -9 -39
-20 -12 -11 -26 -20 -32 -20 -13 0 -48 -20 -74 -42 -11 -10 -32 -18 -48 -18
-15 0 -28 -4 -28 -10 0 -5 -7 -10 -15 -10 -8 0 -15 -4 -15 -10 0 -5 -9 -10
-20 -10 -11 0 -20 -4 -20 -10 0 -5 -6 -10 -14 -10 -7 0 -27 -13 -44 -30 -18
-16 -36 -30 -42 -30 -14 0 -100 -84 -100 -98 0 -7 -13 -26 -30 -44 -16 -17
-30 -42 -30 -54 0 -13 -4 -24 -10 -24 -5 0 -10 -9 -10 -20 0 -11 5 -20 10 -20
6 0 10 5 10 10 0 6 9 10 20 10 11 0 20 5 20 10 0 6 6 10 13 10 7 0 23 9 35 20
12 11 28 20 37 20 8 0 15 5 15 10 0 6 8 10 18 10 22 0 79 27 88 41 3 5 13 8
22 5 10 -3 25 1 36 9 18 13 18 15 -3 41 -11 15 -21 32 -21 39 0 21 60 75 90
82 17 3 30 9 30 14 0 5 14 9 30 9 17 0 30 3 30 8 0 4 14 13 30 20 17 6 44 18
60 24 17 7 30 16 30 20 0 5 7 8 15 8 8 0 15 5 15 10 0 6 11 10 25 10 14 0 25
5 25 10 0 6 6 10 13 10 8 0 22 9 32 20 10 11 23 20 30 20 6 0 22 12 36 26 13
15 41 37 61 50 44 28 208 190 208 206 0 5 14 27 30 48 17 21 30 45 30 53 0 9
5 19 10 22 12 7 13 25 2 25 -5 0 -31 -20 -58 -44 -27 -25 -54 -50 -61 -55 -7
-6 -18 -11 -26 -11 -7 0 -18 -5 -25 -12 -6 -6 -15 -9 -18 -5 -4 3 11 24 33 46
59 61 83 113 83 182 0 55 -3 63 -35 94 -19 19 -41 35 -49 35 -8 0 -16 5 -18
11 -3 8 -51 12 -148 13 l-145 1 -3 38 c-3 35 -1 38 27 43 l31 7 0 103 c0 58 4
106 10 109 6 3 10 15 10 26 0 10 5 28 10 39 6 11 15 29 20 40 6 11 10 31 10
44 0 14 5 28 10 31 6 3 10 20 10 36 0 16 6 32 14 35 9 4 13 17 11 40 -2 19 1
48 7 64 5 16 8 37 6 46 -3 14 -5 14 -20 -3z"/>
<path d="M4340 4990 c0 -9 19 -35 48 -65 6 -8 12 -17 12 -22 0 -4 14 -22 30
-40 17 -18 30 -39 30 -47 0 -9 9 -16 20 -16 11 0 20 -7 20 -15 0 -16 208 -225
223 -225 4 0 22 -13 40 -30 18 -16 37 -30 42 -30 6 0 17 -9 25 -20 8 -11 22
-20 32 -20 10 0 18 -4 18 -8 0 -4 12 -13 28 -19 15 -7 35 -18 44 -25 9 -7 20
-9 23 -6 7 7 -83 98 -97 98 -12 0 -38 26 -38 38 0 5 -20 29 -46 53 -25 24 -51
55 -59 69 -24 42 -88 106 -92 93 -3 -7 -16 -13 -29 -13 -18 0 -52 27 -122 98
-54 53 -107 112 -117 130 -19 31 -35 42 -35 22z"/>
</g>
</svg>
